# xmcd
#
# Track frame offsets: 
#        150
#        9410
#        17711
#        29293
#        37239
#        46464
#        57144
#        68876
#        77025
#        87306
#        99636
#        109511
#        119103
#        128898
#        139688
#        148051
#        157926
#        168119
#        176065
#        185101
#        192945
#        200833
#        209798
#        218314
#        228498
#
# Disc length: 3148 seconds
#
# Revision: 0
# Processed by: cddbd v1.5.2PL0 Copyright (c) Steve Scherf et al.
# Submitted via: ExactAudioCopyFreeDBPlugin 1.0
#
DISCID=6e0c4a19
DTITLE=Johnny Cash - The Best Of The Man In Black - Country Boy
DYEAR=2011
DGENRE=Country
TTITLE0=I Got Stripes
TTITLE1=Guess Things Happen That  Way
TTITLE2=I Still Miss Someone
TTITLE3=Five Feet High And Rising
TTITLE4=Luther Played The Boogle
TTITLE5=You Win Again
TTITLE6=Thanks A Lot
TTITLE7=You Dreamer You
TTITLE8=Frankle's Man, Johnny
TTITLE9=My Grandfather's Clock
TTITLE10=Goodbye Little Darlin'
TTITLE11=The Great Speckled Bird
TTITLE12=Rock Island Line
TTITLE13=(I Heard That) Lonesome Whistle
TTITLE14=Country Boy
TTITLE15=Shepherd Of My Heart
TTITLE16=I Was There When It Happened
TTITLE17=Wreck Of The Old 97
TTITLE18=One More Ride
TTITLE19=I Can't Help It
TTITLE20=Old Apache Squaw
TTITLE21=Pickin' Time
TTITLE22=That's All Over
TTITLE23=The Troubadour
TTITLE24=Hey Good Lookin'
EXTD=
EXTT0=
EXTT1=
EXTT2=
EXTT3=
EXTT4=
EXTT5=
EXTT6=
EXTT7=
EXTT8=
EXTT9=
EXTT10=
EXTT11=
EXTT12=
EXTT13=
EXTT14=
EXTT15=
EXTT16=
EXTT17=
EXTT18=
EXTT19=
EXTT20=
EXTT21=
EXTT22=
EXTT23=
EXTT24=
PLAYORDER=
